<svg id="Layer_1" data-name="Layer 1" xmlns="http://www.w3.org/2000/svg" viewBox="0 0 97 118"><defs><style>.cls-1{stroke:#fff;stroke-miterlimit:10;}</style></defs><title>DARKFRUIT</title><path class="cls-1" d="M88.5,75C88.5,97.92,69,116.5,45,116.5S1.5,97.92,1.5,75,21,33.5,45,33.5a46,46,0,0,1,8.77.84C73.59,38.21,88.5,55,88.5,75Z"/><path class="cls-1" d="M55.5,43.5a28.64,28.64,0,0,1,22,19"/><path class="cls-1" d="M55.5,48.5a21.33,21.33,0,0,1,17,14"/><path class="cls-1" d="M58.5,36.08c-.44-.1,6.86-10.83,9-34.58h3c1,0-9.45,37.43-8.66,35.22"/><path class="cls-1" d="M68.06,9.44S80.58,3.32,96.53,25C96.53,25,74.7,27.93,68.06,9.44Z"/><path class="cls-1" d="M66.53,13.44S54,7.32,38.06,29C38.06,29,59.89,31.93,66.53,13.44Z"/></svg>