<svg id="Layer_1" data-name="Layer 1" xmlns="http://www.w3.org/2000/svg" viewBox="0 0 328.07 376.07"><defs><style>.cls-1{fill:#ff94ff;}.cls-1,.cls-2,.cls-3,.cls-4,.cls-5,.cls-6,.cls-7,.cls-8{stroke:#ff1ff5;stroke-miterlimit:10;}.cls-2{fill:#003a8a;}.cls-3{fill:#7694ff;}.cls-4{fill:#a7dbff;}.cls-5{fill:#d394ff;}.cls-6{fill:#c094ff;}.cls-7{fill:#a74dff;}.cls-8{fill:#a794ff;}</style></defs><title>assorted fruits</title><path class="cls-1" d="M117.5,134c0,22.92-19.48,41.5-43.5,41.5S30.5,156.92,30.5,134,50,92.5,74,92.5a46,46,0,0,1,8.77.84C102.59,97.21,117.5,114,117.5,134Z"/><path class="cls-2" d="M84.5,102.5a28.64,28.64,0,0,1,22,19"/><path class="cls-2" d="M84.5,107.5a21.33,21.33,0,0,1,17,14"/><path class="cls-2" d="M87.5,95.08c-.44-.1,6.86-10.83,9-34.58h3c1,0-9.45,37.43-8.66,35.22"/><path class="cls-2" d="M97.06,68.44S109.58,62.32,125.53,84C125.53,84,103.7,86.93,97.06,68.44Z"/><path class="cls-2" d="M95.53,72.44S83,66.32,67.06,88C67.06,88,88.89,90.93,95.53,72.44Z"/><path class="cls-3" d="M200.5,202c0,22.92-19.48,41.5-43.5,41.5s-43.5-18.58-43.5-41.5S133,160.5,157,160.5a46,46,0,0,1,8.77.84C185.59,165.21,200.5,182,200.5,202Z"/><path class="cls-2" d="M167.5,170.5a28.64,28.64,0,0,1,22,19"/><path class="cls-2" d="M167.5,175.5a21.33,21.33,0,0,1,17,14"/><path class="cls-2" d="M170.5,163.08c-.44-.1,6.86-10.83,9-34.58h3c1,0-9.45,37.43-8.66,35.22"/><path class="cls-2" d="M180.06,136.44s12.52-6.12,28.47,15.57C208.53,152,186.7,154.93,180.06,136.44Z"/><path class="cls-2" d="M178.53,140.44S166,134.32,150.06,156C150.06,156,171.89,158.93,178.53,140.44Z"/><path class="cls-4" d="M287.5,273c0,22.92-19.48,41.5-43.5,41.5s-43.5-18.58-43.5-41.5S220,231.5,244,231.5a46,46,0,0,1,8.77.84C272.59,236.21,287.5,253,287.5,273Z"/><path class="cls-2" d="M254.5,241.5a28.64,28.64,0,0,1,22,19"/><path class="cls-2" d="M254.5,246.5a21.33,21.33,0,0,1,17,14"/><path class="cls-2" d="M257.5,234.08c-.44-.1,6.86-10.83,9-34.58h3c1,0-9.45,37.43-8.66,35.22"/><path class="cls-2" d="M267.06,207.44s12.52-6.12,28.47,15.57C295.53,223,273.7,225.93,267.06,207.44Z"/><path class="cls-2" d="M265.53,211.44S253,205.32,237.06,227C237.06,227,258.89,229.93,265.53,211.44Z"/><path class="cls-5" d="M315.5,145c0,22.92-19.48,41.5-43.5,41.5s-43.5-18.58-43.5-41.5S248,103.5,272,103.5a46,46,0,0,1,8.77.84C300.59,108.21,315.5,125,315.5,145Z"/><path class="cls-2" d="M282.5,113.5a28.64,28.64,0,0,1,22,19"/><path class="cls-2" d="M282.5,118.5a21.33,21.33,0,0,1,17,14"/><path class="cls-2" d="M285.5,106.08c-.44-.1,6.86-10.83,9-34.58h3c1,0-9.45,37.43-8.66,35.22"/><path class="cls-2" d="M295.06,79.44S307.58,73.32,323.53,95C323.53,95,301.7,97.93,295.06,79.44Z"/><path class="cls-2" d="M293.53,83.44S281,77.32,265.06,99C265.06,99,286.89,101.93,293.53,83.44Z"/><path class="cls-6" d="M225.5,78c0,22.92-19.48,41.5-43.5,41.5S138.5,100.92,138.5,78,158,36.5,182,36.5a46,46,0,0,1,8.77.84C210.59,41.21,225.5,58,225.5,78Z"/><path class="cls-2" d="M192.5,46.5a28.64,28.64,0,0,1,22,19"/><path class="cls-2" d="M192.5,51.5a21.33,21.33,0,0,1,17,14"/><path class="cls-2" d="M195.5,39.08c-.44-.1,6.86-10.83,9-34.58h3c1,0-9.45,37.43-8.66,35.22"/><path class="cls-2" d="M205.06,12.44S217.58,6.32,233.53,28C233.53,28,211.7,30.93,205.06,12.44Z"/><path class="cls-2" d="M203.53,16.44S191,10.32,175.06,32C175.06,32,196.89,34.93,203.53,16.44Z"/><path class="cls-7" d="M93.5,258c0,22.92-19.48,41.5-43.5,41.5S6.5,280.92,6.5,258,26,216.5,50,216.5a46,46,0,0,1,8.77.84C78.59,221.21,93.5,238,93.5,258Z"/><path class="cls-2" d="M60.5,226.5a28.64,28.64,0,0,1,22,19"/><path class="cls-2" d="M60.5,231.5a21.33,21.33,0,0,1,17,14"/><path class="cls-2" d="M63.5,219.08c-.44-.1,6.86-10.83,9-34.58h3c1,0-9.45,37.43-8.66,35.22"/><path class="cls-2" d="M73.06,192.44s12.52-6.12,28.47,15.57C101.53,208,79.7,210.93,73.06,192.44Z"/><path class="cls-2" d="M71.53,196.44S59,190.32,43.06,212C43.06,212,64.89,214.93,71.53,196.44Z"/><path class="cls-8" d="M180.5,331c0,22.92-19.48,41.5-43.5,41.5S93.5,353.92,93.5,331,113,289.5,137,289.5a46,46,0,0,1,8.77.84C165.59,294.21,180.5,311,180.5,331Z"/><path class="cls-2" d="M147.5,299.5a28.64,28.64,0,0,1,22,19"/><path class="cls-2" d="M147.5,304.5a21.33,21.33,0,0,1,17,14"/><path class="cls-2" d="M150.5,292.08c-.44-.1,6.86-10.83,9-34.58h3c1,0-9.45,37.43-8.66,35.22"/><path class="cls-2" d="M160.06,265.44s12.52-6.12,28.47,15.57C188.53,281,166.7,283.93,160.06,265.44Z"/><path class="cls-2" d="M158.53,269.44S146,263.32,130.06,285C130.06,285,151.89,287.93,158.53,269.44Z"/></svg>