<svg id="Layer_1" data-name="Layer 1" xmlns="http://www.w3.org/2000/svg" viewBox="0 0 75.76 57.69"><defs><style>.cls-1{fill:#1cea9b;}.cls-2{fill:#f2f2f2;}.cls-3{fill:#a881f2;}.cls-4{fill:#1c1c1c;}.cls-5{fill:none;stroke:#000;stroke-miterlimit:10;}</style></defs><title>purple melon</title><polygon class="cls-1" points="70.74 42.59 74.74 47.89 70.34 47.79 66.44 42.59 70.74 42.59"/><path class="cls-1" d="M70.34,47.79l4.3.1c-17,13.2-55.5,11.6-73.9-.1C20.74,59.19,51.34,57.89,70.34,47.79Z"/><polygon class="cls-2" points="67.54 38.39 70.74 42.59 66.44 42.59 66.44 42.59 63.24 38.39 67.54 38.39"/><path class="cls-1" d="M66.44,42.59l3.9,5.2c-19.1,10.1-49.6,11.4-69.6,0l3.9-5.2c13.4,9.7,48.6,10.5,61.8,0Z"/><polygon class="cls-3" points="38.84 0.59 67.54 38.39 63.24 38.39 35.64 1.69 38.84 0.59"/><path class="cls-2" d="M63.24,38.39l3.2,4.2c-13.2,10.4-48.5,9.7-61.8,0l3.2-4.2C17,45.39,48.84,48.89,63.24,38.39Z"/><path class="cls-3" d="M35.64,1.69l27.6,36.7c-14.5,10.5-46.2,7-55.4,0Zm13,29.3c1.4.9,1.1-4.5,1.1-4.5S46.44,29.59,48.64,31Zm-4.2,6.7c1.4.9,1.1-4.5,1.1-4.5S42.24,36.19,44.44,37.69ZM43.94,24c1.4.9,1.1-4.5,1.1-4.5S41.74,22.49,43.94,24ZM40,17c1.4.9,1.1-4.5,1.1-4.5S37.94,15.59,40,17Zm-.8,14c1.4.9,1.1-4.5,1.1-4.5S37,29.59,39.24,31Zm-3.8-6.9c1.4.9,1.1-4.5,1.1-4.5S33.24,22.69,35.44,24.09ZM34.54,38c1.4.9,1.1-4.5,1.1-4.5S32.34,36.59,34.54,38Zm-3.4-21c1.4.9,1.1-4.5,1.1-4.5S28.94,15.59,31.14,17Zm-1.9,14.4c1.4.9,1.1-4.5,1.1-4.5S27,30,29.24,31.39ZM25.34,24c1.4.9,1.1-4.5,1.1-4.5S23.14,22.49,25.34,24Zm-1.9,13.7c1.4.9,1.1-4.5,1.1-4.5S21.34,36.19,23.44,37.69Zm-3.8-6.2c1.4.9,1.1-4.5,1.1-4.5S17.54,30,19.64,31.49Z"/><path class="cls-4" d="M49.74,26.59s.3,5.4-1.1,4.5C46.44,29.59,49.74,26.59,49.74,26.59Z"/><path class="cls-4" d="M45.54,33.19s.3,5.4-1.1,4.5C42.24,36.19,45.54,33.19,45.54,33.19Z"/><path class="cls-4" d="M45,19.49s.3,5.4-1.1,4.5C41.74,22.49,45,19.49,45,19.49Z"/><path class="cls-4" d="M41.24,12.59s.3,5.4-1.1,4.5C37.94,15.59,41.24,12.59,41.24,12.59Z"/><path class="cls-4" d="M40.34,26.59s.3,5.4-1.1,4.5C37,29.59,40.34,26.59,40.34,26.59Z"/><path class="cls-4" d="M36.54,19.69s.3,5.4-1.1,4.5C33.24,22.69,36.54,19.69,36.54,19.69Z"/><path class="cls-4" d="M35.64,33.59s.3,5.4-1.1,4.5C32.34,36.59,35.64,33.59,35.64,33.59Z"/><path class="cls-4" d="M32.24,12.59s.3,5.4-1.1,4.5C28.94,15.59,32.24,12.59,32.24,12.59Z"/><path class="cls-4" d="M30.34,26.89s.3,5.4-1.1,4.5C27,30,30.34,26.89,30.34,26.89Z"/><path class="cls-4" d="M26.44,19.49s.3,5.4-1.1,4.5C23.14,22.49,26.44,19.49,26.44,19.49Z"/><path class="cls-4" d="M24.64,33.19s.3,5.4-1.1,4.5C21.34,36.19,24.64,33.19,24.64,33.19Z"/><path class="cls-4" d="M20.84,27s.3,5.4-1.1,4.5C17.54,30,20.84,27,20.84,27Z"/><polyline class="cls-5" points="67.54 38.39 70.74 42.59 74.74 47.89 70.34 47.79"/><polyline class="cls-5" points="35.64 1.69 38.84 0.59 67.54 38.39"/><path class="cls-5" d="M66.44,42.59l-3.2-4.2L35.64,1.69,7.84,38.39l-3.2,4.2-3.9,5.2c20,11.4,50.5,10.1,69.6,0l-3.9-5.2"/><path class="cls-5" d="M4.64,42.59h0c13.3,9.7,48.6,10.4,61.8,0h4.2"/><path class="cls-5" d="M74.74,47.89c-17,13.2-55.5,11.6-73.9-.1"/><path class="cls-5" d="M25.34,24c-2.2-1.4,1.1-4.5,1.1-4.5S26.74,24.89,25.34,24Z"/><path class="cls-5" d="M35.44,24.09c-2.2-1.4,1.1-4.5,1.1-4.5S36.84,25,35.44,24.09Z"/><path class="cls-5" d="M31.14,17c-2.2-1.4,1.1-4.5,1.1-4.5S32.54,18,31.14,17Z"/><path class="cls-5" d="M43.94,24c-2.2-1.4,1.1-4.5,1.1-4.5S45.34,24.89,43.94,24Z"/><path class="cls-5" d="M40,17c-2.2-1.4,1.1-4.5,1.1-4.5S41.44,18,40,17Z"/><path class="cls-5" d="M48.64,31c-2.2-1.4,1.1-4.5,1.1-4.5S50,32,48.64,31Z"/><path class="cls-5" d="M39.24,31c-2.2-1.4,1.1-4.5,1.1-4.5S40.64,32,39.24,31Z"/><path class="cls-5" d="M29.24,31.39c-2.2-1.4,1.1-4.5,1.1-4.5S30.64,32.29,29.24,31.39Z"/><path class="cls-5" d="M19.64,31.49c-2.2-1.4,1.1-4.5,1.1-4.5S21,32.39,19.64,31.49Z"/><path class="cls-5" d="M23.44,37.69c-2.2-1.4,1.1-4.5,1.1-4.5S24.84,38.59,23.44,37.69Z"/><path class="cls-5" d="M34.54,38c-2.2-1.4,1.1-4.5,1.1-4.5S35.94,39,34.54,38Z"/><path class="cls-5" d="M44.44,37.69c-2.2-1.4,1.1-4.5,1.1-4.5S45.84,38.59,44.44,37.69Z"/><path class="cls-5" d="M7.84,38.39c9.2,7,40.9,10.5,55.4,0h4.2"/></svg>